<?xml version="1.0" encoding="utf-8"?>
<svg version="1.1" id="Layer_1" xmlns="http://www.w3.org/2000/svg" xmlns:xlink="http://www.w3.org/1999/xlink" x="0px" y="0px"
	 width="283.465px" height="283.465px" viewBox="0 0 283.465 283.465" enable-background="new 0 0 283.465 283.465"
	 xml:space="preserve">
<path fill="#fff" fill-rule="evenodd" clip-rule="evenodd" d="M252.021,156.312h-31.52c-1.992,10.004-5.938,19.313-11.426,27.508l22.309,22.309
	l-21.211,21.215l-22.309-22.309c-8.199,5.484-17.504,9.43-27.512,11.426v31.52h-30v-31.52c-10.004-1.996-19.313-5.941-27.508-11.426
	l-22.309,22.309l-21.215-21.215l22.309-22.309c-5.484-8.195-9.43-17.504-11.426-27.508h-31.52v-30h31.52
	c1.996-10.004,5.941-19.313,11.426-27.508L59.322,76.495L80.537,55.28l22.309,22.309c8.195-5.484,17.504-9.43,27.508-11.426v-31.52
	h30v31.52c10.004,1.996,19.313,5.941,27.508,11.426L210.17,55.28l21.215,21.215l-22.309,22.309
	c5.484,8.195,9.43,17.504,11.426,27.508h31.52V156.312z M145.357,94.679c-25.715,0-46.633,20.922-46.633,46.633
	s20.918,46.633,46.633,46.633c25.711,0,46.629-20.922,46.629-46.633S171.068,94.679,145.357,94.679z"/>
</svg>
