<?xml version="1.0" encoding="UTF-8"?>
<svg xmlns="http://www.w3.org/2000/svg" xml:space="preserve" width="1181px" height="1181px" style="shape-rendering:geometricPrecision; text-rendering:geometricPrecision; image-rendering:optimizeQuality; fill-rule:evenodd; clip-rule:evenodd"
viewBox="0 0 1181 1181"
 xmlns:xlink="http://www.w3.org/1999/xlink"
 version="1.1">
 <g id="Camada_x0020_1">
  <metadata id="CorelCorpID_0Corel-Layer"/>
  <path fill="#fff" d="M564 218l0 0c28,0 51,23 51,51l0 251c0,28 -23,51 -51,51l0 0c-28,0 -51,-23 -51,-51l0 -251c0,-28 23,-51 51,-51zm195 65c15,0 29,6 39,17l0 0c74,65 121,161 121,267 0,196 -159,355 -355,355 -196,0 -355,-159 -355,-355 0,-107 47,-202 121,-267l0 0c10,-10 24,-17 39,-17 30,0 54,24 54,54 0,15 -6,29 -17,39l0 0c-55,45 -89,113 -89,190 0,136 110,246 246,246 136,0 246,-110 246,-246 0,-76 -35,-145 -89,-190l0 0c-10,-10 -17,-24 -17,-39 0,-30 24,-54 54,-54z"/>
 </g>
</svg>
