<?xml version="1.0" encoding="utf-8"?>
<svg version="1.1" id="Layer_1" xmlns="http://www.w3.org/2000/svg" xmlns:xlink="http://www.w3.org/1999/xlink" x="0px" y="0px"
	 width="283.465px" height="283.465px" viewBox="0 0 283.465 283.465" enable-background="new 0 0 283.465 283.465"
	 xml:space="preserve">
<path fill="#fff" fill-rule="evenodd" clip-rule="evenodd" d="M68.473,138.216H53.025c-9.992,0-12.026-9.632-5.099-16.046l81.406-75.369
	c3.725-3.446,8.646-5.149,13.551-5.112c4.907-0.037,9.828,1.666,13.551,5.112l81.408,75.369c6.928,6.415,4.893,16.046-5.099,16.046
	h-15.449v72.222c0,11.138-9.112,20.25-20.25,20.25h-25.071v-82.733c0-4.704-3.85-8.553-8.553-8.553h-41.074
	c-4.704,0-8.553,3.849-8.553,8.553v82.733H88.723c-11.138,0-20.25-9.112-20.25-20.25V138.216z"/>
</svg>
